<svg xmlns="http://www.w3.org/2000/svg" xmlns:xlink="http://www.w3.org/1999/xlink" width="500" zoomAndPan="magnify" viewBox="0 0 375 374.999991" height="500" preserveAspectRatio="xMidYMid meet" version="1.0"><defs><g/><clipPath id="e0f08d7e4b"><path d="M 6.515625 60.738281 L 322.265625 60.738281 L 322.265625 314.238281 L 6.515625 314.238281 Z M 6.515625 60.738281 " clip-rule="nonzero"/></clipPath><clipPath id="3ce31a40be"><path d="M 168 145 L 185 145 L 185 156.628906 L 168 156.628906 Z M 168 145 " clip-rule="nonzero"/></clipPath><clipPath id="1826fcf63c"><path d="M 166.324219 141.628906 L 186.574219 141.628906 L 186.574219 146 L 166.324219 146 Z M 166.324219 141.628906 " clip-rule="nonzero"/></clipPath><clipPath id="3d251f4bfb"><path d="M 315.492188 209.738281 L 339.183594 209.738281 L 339.183594 229.070312 L 315.492188 229.070312 Z M 315.492188 209.738281 " clip-rule="nonzero"/></clipPath><clipPath id="b3e37ebf3c"><path d="M 324.445312 168.324219 L 368.480469 168.324219 L 368.480469 174.480469 L 324.445312 174.480469 Z M 324.445312 168.324219 " clip-rule="nonzero"/></clipPath><clipPath id="77ce94bc48"><path d="M 324 168 L 368.730469 168 L 368.730469 175 L 324 175 Z M 324 168 " clip-rule="nonzero"/></clipPath><clipPath id="a7a5e578a1"><path d="M 318 160.246094 L 363 160.246094 L 363 204 L 318 204 Z M 318 160.246094 " clip-rule="nonzero"/></clipPath></defs><g fill="#ed2224" fill-opacity="1"><g transform="translate(146.149682, 219.881224)"><g/></g></g><g fill="#ed2224" fill-opacity="1"><g transform="translate(163.426256, 219.881224)"><g><path d="M 16.734375 0 L 9.40625 0 L 9.40625 -62.234375 L 16.734375 -62.234375 Z M 16.734375 0 "/></g></g></g><g fill="#ed2224" fill-opacity="1"><g transform="translate(185.504874, 219.881224)"><g><path d="M 8.171875 0 L 8.171875 -46.953125 L 14.765625 -46.953125 L 14.765625 -39.59375 L 15.671875 -39.375 C 17.234375 -42.132812 19.222656 -44.234375 21.640625 -45.671875 C 24.066406 -47.117188 27.03125 -47.84375 30.53125 -47.84375 C 36.175781 -47.84375 40.265625 -46.398438 42.796875 -43.515625 C 45.335938 -40.640625 46.609375 -36.207031 46.609375 -30.21875 L 46.609375 0 L 39.671875 0 L 39.671875 -30.0625 C 39.671875 -32.894531 39.304688 -35.171875 38.578125 -36.890625 C 37.859375 -38.609375 36.738281 -39.859375 35.21875 -40.640625 C 33.707031 -41.421875 31.71875 -41.8125 29.25 -41.8125 C 25.019531 -41.8125 21.601562 -40.410156 19 -37.609375 C 16.40625 -34.816406 15.109375 -30.3125 15.109375 -24.09375 L 15.109375 0 Z M 8.171875 0 "/></g></g></g><g fill="#ed2224" fill-opacity="1"><g transform="translate(235.463419, 219.881224)"><g><path d="M 31.765625 -7.453125 L 33.96875 -2.46875 C 32.863281 -1.363281 31.410156 -0.53125 29.609375 0.03125 C 27.804688 0.601562 25.851562 0.890625 23.75 0.890625 C 14.78125 0.890625 10.296875 -3.648438 10.296875 -12.734375 L 10.296875 -41.296875 L 2.125 -41.296875 L 2.125 -47 L 10.296875 -47 L 10.296875 -56.921875 L 17.234375 -58.0625 L 17.234375 -47 L 32.359375 -47 L 32.359375 -41.296875 L 17.234375 -41.296875 L 17.234375 -13.40625 C 17.234375 -8.019531 19.578125 -5.328125 24.265625 -5.328125 C 26.816406 -5.328125 29.015625 -6.035156 30.859375 -7.453125 Z M 31.765625 -7.453125 "/></g></g></g><g fill="#ed2224" fill-opacity="1"><g transform="translate(267.119107, 219.881224)"><g><path d="M 44.75 -21.875 L 12.46875 -21.875 C 12.664062 -16.175781 14.035156 -11.992188 16.578125 -9.328125 C 19.117188 -6.660156 22.601562 -5.328125 27.03125 -5.328125 C 30.382812 -5.328125 33.082031 -5.921875 35.125 -7.109375 C 37.164062 -8.296875 38.769531 -10.171875 39.9375 -12.734375 L 40.828125 -12.734375 L 45.34375 -10.046875 C 43.976562 -6.640625 41.796875 -3.960938 38.796875 -2.015625 C 35.804688 -0.078125 31.882812 0.890625 27.03125 0.890625 C 22.488281 0.890625 18.585938 0 15.328125 -1.78125 C 12.066406 -3.570312 9.554688 -6.285156 7.796875 -9.921875 C 6.035156 -13.554688 5.15625 -18.066406 5.15625 -23.453125 C 5.15625 -28.785156 6.082031 -33.28125 7.9375 -36.9375 C 9.800781 -40.601562 12.34375 -43.335938 15.5625 -45.140625 C 18.78125 -46.941406 22.460938 -47.84375 26.609375 -47.84375 C 32.617188 -47.84375 37.3125 -46.144531 40.6875 -42.75 C 44.070312 -39.363281 45.78125 -34.335938 45.8125 -27.671875 C 45.8125 -25.054688 45.753906 -23.296875 45.640625 -22.390625 Z M 38.953125 -27.671875 C 38.835938 -32.671875 37.726562 -36.300781 35.625 -38.5625 C 33.53125 -40.832031 30.523438 -41.96875 26.609375 -41.96875 C 22.492188 -41.96875 19.265625 -40.828125 16.921875 -38.546875 C 14.578125 -36.265625 13.148438 -32.640625 12.640625 -27.671875 Z M 38.953125 -27.671875 "/></g></g></g><g clip-path="url(#e0f08d7e4b)"><path fill="#243068" d="M 157.996094 302.988281 L 167.371094 309.242188 L 156.289062 311.273438 C 148.53125 312.691406 140.648438 313.410156 132.828125 313.410156 C 115.4375 313.410156 98.851562 310.058594 83.542969 303.441406 C 68.269531 296.855469 54.789062 287.769531 43.46875 276.457031 C 32.144531 265.136719 23.070312 251.667969 16.484375 236.378906 C 9.867188 221.085938 6.515625 204.5 6.515625 187.109375 C 6.515625 169.71875 9.867188 153.132812 16.472656 137.816406 C 23.070312 122.539062 32.144531 109.058594 43.457031 97.75 C 54.777344 86.425781 68.269531 77.347656 83.542969 70.753906 C 98.851562 64.148438 115.4375 60.796875 132.828125 60.796875 C 140.152344 60.796875 147.738281 61.484375 155.394531 62.847656 C 156.339844 63.019531 157.277344 63.191406 158.210938 63.386719 L 169.230469 65.609375 L 159.789062 71.699219 C 156.160156 74.042969 152.636719 76.554688 149.292969 79.175781 L 147.8125 80.347656 L 145.933594 80.121094 C 141.753906 79.625 137.351562 79.367188 132.847656 79.367188 C 118.132812 79.367188 104.09375 82.203125 91.140625 87.824219 C 78.109375 93.441406 66.5625 101.261719 56.777344 111.046875 C 46.992188 120.832031 39.160156 132.402344 33.542969 145.398438 C 27.933594 158.351562 25.089844 172.382812 25.089844 187.109375 C 25.089844 201.835938 27.933594 215.875 33.542969 228.820312 C 39.171875 241.828125 46.992188 253.386719 56.777344 263.171875 C 66.5625 272.96875 78.121094 280.785156 91.128906 286.40625 C 104.070312 292.011719 118.101562 294.859375 132.839844 294.859375 C 136.671875 294.859375 140.507812 294.675781 144.234375 294.300781 L 146.105469 294.117188 L 147.566406 295.300781 C 150.894531 298.007812 154.40625 300.59375 157.996094 302.988281 Z M 313.007812 265.542969 C 310.65625 265.542969 308.453125 266.46875 306.617188 268.21875 C 295.898438 276.972656 284.660156 283.816406 273.210938 288.5625 C 261.855469 293.28125 249.03125 295.675781 235.089844 295.675781 C 220.363281 295.675781 206.320312 292.839844 193.378906 287.222656 C 180.371094 281.59375 168.8125 273.785156 159.027344 263.988281 C 149.242188 254.203125 141.421875 242.644531 135.792969 229.636719 C 130.183594 216.691406 127.339844 202.664062 127.339844 187.925781 C 127.339844 173.199219 130.183594 159.160156 135.792969 146.214844 C 141.421875 133.21875 149.242188 121.660156 159.027344 111.863281 C 168.8125 102.078125 180.371094 94.257812 193.378906 88.628906 C 206.332031 83.019531 220.363281 80.175781 235.089844 80.175781 C 242.253906 80.175781 249.074219 80.808594 255.347656 82.066406 C 261.632812 83.332031 267.648438 85.136719 273.222656 87.445312 C 278.828125 89.765625 284.445312 92.667969 289.894531 96.074219 C 295.347656 99.488281 301 103.398438 306.691406 107.707031 C 308.324219 109.210938 310.398438 110.003906 312.707031 110.003906 C 314.351562 110.003906 316.824219 109.53125 319.28125 107.296875 C 321.902344 104.914062 322.449219 102.324219 322.449219 100.574219 C 322.449219 98.101562 321.386719 95.792969 319.292969 93.699219 L 319.226562 93.632812 C 313.707031 88.328125 307.53125 83.664062 300.871094 79.746094 C 294.285156 75.878906 287.292969 72.539062 280.074219 69.820312 C 272.847656 67.089844 265.304688 65.027344 257.65625 63.664062 C 250.007812 62.300781 242.414062 61.613281 235.089844 61.613281 C 217.699219 61.613281 201.113281 64.964844 185.804688 71.582031 C 170.53125 78.164062 157.050781 87.253906 145.726562 98.5625 C 134.417969 109.875 125.339844 123.355469 118.746094 138.632812 C 112.140625 153.949219 108.777344 170.535156 108.777344 187.925781 C 108.777344 205.316406 112.128906 221.902344 118.746094 237.21875 C 125.328125 252.492188 134.417969 265.972656 145.726562 277.285156 C 157.050781 288.605469 170.53125 297.683594 185.804688 304.269531 C 201.113281 310.875 217.707031 314.238281 235.089844 314.238281 C 250.160156 314.238281 265.21875 311.582031 279.847656 306.363281 C 294.578125 301.097656 307.820312 292.988281 319.183594 282.246094 L 319.28125 282.160156 C 321.375 280.066406 322.441406 277.746094 322.441406 275.289062 C 322.441406 273.65625 321.976562 271.183594 319.722656 268.703125 C 317.347656 266.09375 314.761719 265.542969 313.007812 265.542969 Z M 313.007812 265.542969 " fill-opacity="1" fill-rule="nonzero"/></g><g clip-path="url(#3ce31a40be)"><path fill="#ed2224" d="M 176.382812 156.488281 C 171.804688 156.488281 168.082031 152.761719 168.082031 148.183594 L 168.082031 145.5625 C 168.082031 145.320312 168.277344 145.125 168.519531 145.125 L 184.25 145.125 C 184.492188 145.125 184.6875 145.320312 184.6875 145.5625 L 184.6875 148.183594 C 184.6875 152.761719 180.964844 156.488281 176.382812 156.488281 Z M 168.953125 146 L 168.953125 148.183594 C 168.953125 152.28125 172.289062 155.613281 176.382812 155.613281 C 180.480469 155.613281 183.8125 152.28125 183.8125 148.183594 L 183.8125 146 Z M 168.953125 146 " fill-opacity="1" fill-rule="nonzero"/></g><path fill="#ed2224" d="M 176.382812 154.742188 C 174.214844 154.742188 172.453125 152.976562 172.453125 150.808594 C 172.453125 148.636719 174.214844 146.875 176.382812 146.875 C 178.554688 146.875 180.316406 148.636719 180.316406 150.808594 C 180.316406 152.976562 178.554688 154.742188 176.382812 154.742188 Z M 176.382812 147.746094 C 174.699219 147.746094 173.324219 149.121094 173.324219 150.808594 C 173.324219 152.492188 174.699219 153.867188 176.382812 153.867188 C 178.070312 153.867188 179.445312 152.492188 179.445312 150.808594 C 179.445312 149.121094 178.070312 147.746094 176.382812 147.746094 Z M 176.382812 147.746094 " fill-opacity="1" fill-rule="nonzero"/><path fill="#ed2224" d="M 176.382812 152.992188 C 175.179688 152.992188 174.199219 152.011719 174.199219 150.808594 C 174.199219 149.601562 175.179688 148.621094 176.382812 148.621094 C 177.589844 148.621094 178.570312 149.601562 178.570312 150.808594 C 178.570312 152.011719 177.589844 152.992188 176.382812 152.992188 Z M 176.382812 149.496094 C 175.660156 149.496094 175.074219 150.085938 175.074219 150.808594 C 175.074219 151.53125 175.660156 152.117188 176.382812 152.117188 C 177.109375 152.117188 177.695312 151.53125 177.695312 150.808594 C 177.695312 150.085938 177.109375 149.496094 176.382812 149.496094 Z M 176.382812 149.496094 " fill-opacity="1" fill-rule="nonzero"/><g clip-path="url(#1826fcf63c)"><path fill="#ed2224" d="M 185.125 146 L 167.644531 146 C 166.921875 146 166.332031 145.410156 166.332031 144.6875 L 166.332031 142.066406 C 166.332031 141.824219 166.527344 141.628906 166.769531 141.628906 L 186 141.628906 C 186.242188 141.628906 186.4375 141.824219 186.4375 142.066406 L 186.4375 144.6875 C 186.4375 145.410156 185.847656 146 185.125 146 Z M 167.207031 142.503906 L 167.207031 144.6875 C 167.207031 144.929688 167.402344 145.125 167.644531 145.125 L 185.125 145.125 C 185.367188 145.125 185.5625 144.929688 185.5625 144.6875 L 185.5625 142.503906 Z M 167.207031 142.503906 " fill-opacity="1" fill-rule="nonzero"/></g><path fill="#ed2224" d="M 182.066406 148.183594 C 182.066406 148.304688 182.023438 148.410156 181.9375 148.492188 C 181.851562 148.578125 181.75 148.621094 181.628906 148.621094 C 181.507812 148.621094 181.40625 148.578125 181.320312 148.492188 C 181.234375 148.410156 181.191406 148.304688 181.191406 148.183594 C 181.191406 148.0625 181.234375 147.960938 181.320312 147.875 C 181.40625 147.789062 181.507812 147.746094 181.628906 147.746094 C 181.75 147.746094 181.851562 147.789062 181.9375 147.875 C 182.023438 147.960938 182.066406 148.0625 182.066406 148.183594 Z M 182.066406 148.183594 " fill-opacity="1" fill-rule="nonzero"/><g clip-path="url(#3d251f4bfb)"><path fill="#ed2224" d="M 335.484375 217.078125 L 333.433594 217.078125 L 333.433594 227.640625 L 335.484375 227.640625 Z M 336.964844 215.644531 C 337.304688 215.644531 337.585938 215.363281 337.585938 215.023438 L 337.585938 211.808594 C 337.585938 211.464844 337.308594 211.1875 336.964844 211.1875 L 317.546875 211.1875 C 317.378906 211.1875 317.222656 211.257812 317.109375 211.367188 C 316.996094 211.484375 316.925781 211.636719 316.925781 211.808594 L 316.925781 215.023438 C 316.925781 215.191406 316.996094 215.347656 317.109375 215.460938 C 317.222656 215.574219 317.378906 215.644531 317.546875 215.644531 C 324.019531 215.644531 330.492188 215.644531 336.964844 215.644531 Z M 321.078125 217.078125 L 319.027344 217.078125 L 319.027344 227.640625 L 321.078125 227.640625 Z M 317.546875 209.753906 L 336.964844 209.753906 C 338.09375 209.753906 339.019531 210.679688 339.019531 211.808594 L 339.019531 215.023438 C 339.019531 216.152344 338.09375 217.078125 336.964844 217.078125 L 336.914062 217.078125 L 336.914062 228.355469 C 336.914062 228.75 336.59375 229.070312 336.199219 229.070312 L 332.71875 229.070312 C 332.320312 229.070312 332 228.75 332 228.355469 L 332 217.078125 L 322.511719 217.078125 L 322.511719 228.355469 C 322.511719 228.75 322.191406 229.070312 321.792969 229.070312 L 318.3125 229.070312 C 317.917969 229.070312 317.597656 228.75 317.597656 228.355469 L 317.597656 217.078125 C 317.019531 217.078125 316.507812 216.886719 316.09375 216.472656 C 315.722656 216.101562 315.492188 215.589844 315.492188 215.023438 L 315.492188 211.808594 C 315.492188 211.242188 315.722656 210.726562 316.09375 210.355469 C 316.46875 209.984375 316.980469 209.753906 317.546875 209.753906 " fill-opacity="1" fill-rule="nonzero"/></g><g clip-path="url(#b3e37ebf3c)"><path fill="#ed2224" d="M 367.046875 173.03125 L 367.046875 169.832031 L 326.039062 169.832031 L 326.039062 173.03125 Z M 368.480469 169.113281 L 368.480469 173.75 C 368.480469 174.144531 368.15625 174.464844 367.761719 174.464844 L 325.320312 174.464844 C 324.925781 174.464844 324.605469 174.144531 324.605469 173.75 L 324.605469 169.113281 C 324.605469 168.71875 324.925781 168.398438 325.320312 168.398438 L 367.761719 168.398438 C 368.15625 168.398438 368.480469 168.71875 368.480469 169.113281 " fill-opacity="1" fill-rule="nonzero"/></g><g clip-path="url(#77ce94bc48)"><path fill="#ed2224" d="M 367.96875 169.855469 C 368.28125 169.613281 368.339844 169.167969 368.101562 168.855469 C 367.859375 168.542969 367.414062 168.484375 367.101562 168.722656 L 361.753906 172.832031 L 356.707031 168.570312 C 356.433594 168.335938 356.027344 168.347656 355.765625 168.585938 L 350.238281 172.832031 L 345.183594 168.570312 C 344.90625 168.335938 344.503906 168.347656 344.242188 168.585938 L 338.714844 172.832031 L 333.65625 168.570312 C 333.421875 168.351562 333.035156 168.347656 332.777344 168.53125 L 324.960938 173.132812 C 324.621094 173.332031 324.507812 173.769531 324.707031 174.109375 C 324.90625 174.449219 325.34375 174.5625 325.683594 174.363281 L 333.121094 169.988281 L 338.191406 174.265625 C 338.4375 174.5 338.855469 174.539062 339.125 174.3125 L 344.699219 170.03125 L 349.71875 174.265625 C 349.960938 174.5 350.390625 174.539062 350.652344 174.3125 L 356.222656 170.03125 L 361.234375 174.265625 C 361.476562 174.5 361.90625 174.542969 362.164062 174.3125 L 367.96875 169.855469 " fill-opacity="1" fill-rule="nonzero"/></g><path fill="#ed2224" d="M 358.535156 174.464844 L 358.535156 187.859375 C 358.535156 188.257812 358.214844 188.578125 357.820312 188.578125 L 353.761719 188.578125 C 353.363281 188.578125 353.042969 188.257812 353.042969 187.859375 L 353.042969 174.464844 L 354.476562 174.464844 L 354.476562 187.144531 L 357.101562 187.144531 L 357.101562 174.464844 L 358.535156 174.464844 " fill-opacity="1" fill-rule="nonzero"/><path fill="#ed2224" d="M 351.3125 194.109375 L 355.207031 187.535156 C 355.269531 187.414062 355.363281 187.3125 355.488281 187.238281 C 355.816406 187.050781 356.292969 187.160156 356.464844 187.503906 L 360.238281 194.058594 C 360.566406 194.523438 360.238281 195.1875 359.652344 195.1875 L 351.9375 195.1875 C 351.375 195.195312 351.039062 194.613281 351.3125 194.109375 Z M 355.835938 189.277344 L 353.183594 193.753906 L 358.417969 193.753906 L 355.835938 189.277344 " fill-opacity="1" fill-rule="nonzero"/><g clip-path="url(#a7a5e578a1)"><path fill="#ed2224" d="M 318.386719 202.921875 C 318.386719 203.316406 318.707031 203.636719 319.101562 203.636719 C 319.492188 203.636719 319.8125 203.316406 319.8125 202.921875 L 319.8125 170.609375 L 326.089844 161.820312 L 361.757812 169.8125 C 362.144531 169.894531 362.523438 169.652344 362.609375 169.269531 C 362.695312 168.882812 362.449219 168.503906 362.066406 168.417969 L 326 160.335938 C 325.707031 160.242188 325.378906 160.351562 325.199219 160.605469 L 318.550781 169.921875 C 318.441406 170.050781 318.386719 170.207031 318.386719 170.378906 L 318.386719 202.921875 " fill-opacity="1" fill-rule="nonzero"/></g><path fill="#ed2224" d="M 326.449219 168.757812 C 326.449219 169.152344 326.769531 169.472656 327.167969 169.472656 C 327.5625 169.472656 327.882812 169.152344 327.882812 168.757812 L 327.882812 167.003906 L 332.15625 167.027344 L 332.15625 168.757812 C 332.15625 169.152344 332.476562 169.472656 332.875 169.472656 C 333.269531 169.472656 333.589844 169.152344 333.589844 168.757812 L 333.589844 166.316406 C 333.589844 165.921875 333.269531 165.601562 332.875 165.601562 L 327.234375 165.574219 C 326.8125 165.5625 326.449219 165.867188 326.449219 166.289062 Z M 327.851562 209.753906 L 327.878906 174.097656 C 327.878906 173.703125 327.558594 173.382812 327.167969 173.382812 C 326.773438 173.382812 326.453125 173.703125 326.453125 174.097656 L 326.421875 209.753906 Z M 333.589844 174.105469 C 333.589844 173.710938 333.269531 173.390625 332.875 173.390625 C 332.476562 173.390625 332.15625 173.710938 332.15625 174.105469 L 332.15625 209.753906 L 333.589844 209.753906 L 333.589844 174.105469 " fill-opacity="1" fill-rule="nonzero"/><path fill="#ed2224" d="M 333.429688 205.585938 L 328.089844 198.246094 L 333.367188 193.183594 C 333.65625 192.914062 333.664062 192.457031 333.390625 192.171875 C 333.382812 192.164062 333.375 192.15625 333.371094 192.152344 L 328.160156 186.480469 L 333.363281 181.582031 C 333.652344 181.316406 333.65625 180.867188 333.398438 180.574219 L 327.726562 173.300781 C 327.484375 172.988281 327.039062 172.933594 326.726562 173.175781 C 326.417969 173.417969 326.363281 173.867188 326.605469 174.179688 L 331.910156 180.988281 L 326.703125 185.890625 C 326.535156 186.027344 326.441406 186.238281 326.441406 186.457031 C 326.441406 186.628906 326.503906 186.800781 326.628906 186.925781 L 331.875 192.636719 L 326.6875 197.613281 C 326.511719 197.757812 326.429688 197.953125 326.433594 198.152344 C 326.433594 198.300781 326.480469 198.449219 326.566406 198.585938 L 331.46875 205.320312 L 327.320312 205.320312 C 326.921875 205.320312 326.601562 205.640625 326.601562 206.039062 C 326.601562 206.433594 326.921875 206.753906 327.320312 206.753906 L 332.875 206.753906 C 333.269531 206.753906 333.589844 206.433594 333.589844 206.039062 C 333.589844 205.867188 333.53125 205.710938 333.429688 205.585938 " fill-opacity="1" fill-rule="nonzero"/><path fill="#ed2224" d="M 319.851562 204 L 318.347656 204 L 318.347656 206.902344 L 319.851562 206.902344 Z M 317.628906 202.566406 L 320.570312 202.566406 C 320.964844 202.566406 321.285156 202.886719 321.285156 203.28125 L 321.285156 207.617188 C 321.285156 208.015625 320.964844 208.335938 320.570312 208.335938 L 317.628906 208.335938 C 317.234375 208.335938 316.914062 208.015625 316.914062 207.617188 L 316.914062 203.28125 C 316.914062 202.886719 317.234375 202.566406 317.628906 202.566406 " fill-opacity="1" fill-rule="nonzero"/><path fill="#ed2224" d="M 353.9375 176.789062 C 353.542969 176.789062 353.222656 177.109375 353.222656 177.507812 C 353.222656 177.902344 353.542969 178.222656 353.9375 178.222656 L 357.640625 178.222656 C 358.035156 178.222656 358.355469 177.902344 358.355469 177.507812 C 358.355469 177.109375 358.035156 176.789062 357.640625 176.789062 L 353.9375 176.789062 " fill-opacity="1" fill-rule="nonzero"/></svg>